# xmcd
#
# Track frame offsets:
#	150
#	10323
#	22821
#	37269
#	51867
#	65190
#	67638
#	82536
#	92934
#	110682
#	125505
#	134403
#
# Disc length: 2064 seconds
#
# Revision: 1
# Processed by: cddbd v1.5.2PL0 Copyright (c) Steve Scherf et al.
# Submitted via: audiograbber 1.83.01
#
DISCID=9e080e0c
DTITLE=BR5-49 - Greatest Misses
DYEAR=1900
DGENRE=Country
TTITLE0=I Can't Decide
TTITLE1=Half As Much
TTITLE2=Me 'n' Opie
TTITLE3=Sweet Georgia Brown
TTITLE4=Ain't Gonna Do It Anymore
TTITLE5=Fly Southwest To Nashville
TTITLE6=Jackie O
TTITLE7=Surely Shirley
TTITLE8=Company Man
TTITLE9=Cold Day In Hell
TTITLE10=Happy Birthday Jack Daniels
TTITLE11=BR5-49 Hotline
EXTD=
EXTT0=
EXTT1=
EXTT2=
EXTT3=
EXTT4=
EXTT5=
EXTT6=
EXTT7=
EXTT8=
EXTT9=
EXTT10=
EXTT11=
PLAYORDER=
